<svg width="319" height="76" viewBox="0 0 319 76" fill="none" xmlns="http://www.w3.org/2000/svg">
<g clip-path="url(#clip0_1732_10506)">
<path d="M8.76794 31.1348H18.7568V63.4738C18.7568 72.0767 14.961 75.9547 8.87893 75.9547C6.12644 75.9547 3.15198 75.1747 1.33179 74.2386V66.438C1.86453 66.7946 3.52934 67.8644 5.46052 67.8644C8.3018 67.8644 8.74575 65.5688 8.74575 62.248V31.1348H8.76794Z" fill="black"/>
<path d="M56.0485 45.1752C56.0485 54.1124 49.0785 60.598 39.9554 60.598C30.8322 60.598 24.0176 54.1124 24.0176 45.1083C24.0176 36.1042 30.9876 29.7969 39.9998 29.7969C49.0119 29.7969 56.0485 36.2825 56.0485 45.1752ZM46.0597 45.1752C46.0597 41.6538 43.618 38.7564 40.0442 38.7564C36.4704 38.7564 33.9842 41.6315 33.9842 45.1306C33.9842 48.6297 36.426 51.6385 40.0442 51.6385C43.6624 51.6385 46.0597 48.7634 46.0597 45.1752Z" fill="black"/>
<path d="M94.65 45.1982C94.65 51.3272 90.7876 60.5988 81.1095 60.5988C73.9619 60.5988 71.1206 54.0686 71.1206 54.0686V59.5513H61.8865V9.44922H71.8753V35.6146C72.0085 35.3472 75.0718 29.7976 81.5534 29.7976C90.0773 29.7976 94.6722 37.3753 94.6722 45.1982H94.65ZM84.6611 45.1982C84.6611 41.8328 82.064 39.0914 78.5124 39.0914C74.9608 39.0914 72.0973 42.1671 72.0973 45.1982C72.0973 48.4967 74.6722 51.3272 78.5124 51.3272C82.1306 51.3272 84.6611 48.5636 84.6611 45.1982Z" fill="black"/>
<path d="M119.267 38.1774H113.207V59.5956H103.218V38.1774H98.6455V30.9117H103.462V23.7797L113.185 21.3281V30.9117H119.245V38.1774H119.267Z" fill="black"/>
<path d="M154.938 46.6684H132.63C132.63 49.5881 135.271 52.7083 139.134 52.7083C143.351 52.7083 144.417 49.6772 144.417 49.6772H154.161C154.161 49.6772 151.231 60.598 138.934 60.598C128.168 60.598 122.952 52.7083 122.952 45.1975C122.952 37.6866 128.656 29.7969 138.867 29.7969C149.078 29.7969 154.938 37.0849 154.938 46.6684ZM132.941 41.8544H144.861C144.861 41.8544 143.662 37.2186 138.912 37.2186C134.161 37.2186 132.941 41.8544 132.941 41.8544Z" fill="black"/>
<path d="M185.682 51.2831C185.682 55.2057 182.907 60.5992 172.874 60.5992C162.841 60.5992 159.533 54.4479 159.533 50.8819H169.522C169.522 51.3499 170.543 53.3335 172.94 53.3335C174.317 53.3335 175.715 52.7095 175.715 51.3054C175.715 47.3828 159.866 49.032 159.866 39.1364C159.866 33.6092 165.682 29.8203 172.363 29.8203C180.821 29.8203 184.949 34.991 184.949 39.6713H174.96C174.96 37.8661 173.34 37.1306 172.252 37.1306C171.32 37.1306 169.833 37.554 169.833 38.9581C169.833 42.9253 185.682 41.3206 185.682 51.3499V51.2831Z" fill="black"/>
<path d="M210.343 38.1774H204.283V59.5956H194.294V38.1774H189.722V30.9117H194.539V23.7797L204.261 21.3281V30.9117H210.321V38.1774H210.343Z" fill="black"/>
<path d="M212.607 59.5955V49.4102H222.507V59.5955H212.607Z" fill="black"/>
<path d="M258.911 45.1752C258.911 54.1124 251.941 60.598 242.818 60.598C233.695 60.598 226.88 54.1124 226.88 45.1083C226.88 36.1042 233.85 29.7969 242.863 29.7969C251.875 29.7969 258.911 36.2825 258.911 45.1752ZM248.922 45.1752C248.922 41.6538 246.481 38.7564 242.907 38.7564C239.333 38.7564 236.847 41.6315 236.847 45.1306C236.847 48.6297 239.289 51.6385 242.907 51.6385C246.525 51.6385 248.922 48.7634 248.922 45.1752Z" fill="black"/>
<path d="M284.66 43.7496H283.662C278.534 37.1303 274.672 37.0189 274.672 43.3039V59.596H264.749V30.9121H273.007L274.672 34.4335C275.204 33.23 277.38 30.9121 281.886 30.9121H284.66V43.7496Z" fill="black"/>
<path d="M319 31.1569V54.3135C319 69.2238 310.742 77.7821 295.693 75.6871L295.981 65.9475C300.842 67.8642 309.633 67.3962 309.633 55.8959V54.9821C309.633 54.9821 307.124 60.9106 300.132 60.9106C290.254 60.9106 286.836 51.1264 286.836 45.51C286.836 38.1328 290.942 30.1094 299.954 30.1094C306.569 30.1094 309.122 35.8818 309.122 35.8818V31.1792H319V31.1569ZM309.122 45.51C309.122 42.724 307.102 39.4032 302.973 39.4032C299.599 39.4032 296.825 41.8771 296.825 45.51C296.825 49.1428 299.355 51.6167 302.973 51.6167C306.991 51.6167 309.122 48.4296 309.122 45.51Z" fill="black"/>
<path d="M13.1853 26.8563L0 13.6176L6.28189 7.31026L13.1853 14.2416L27.3695 0L33.6514 6.30733L13.1853 26.8563Z" fill="#5BEAD0"/>
</g>
<defs>
<clipPath id="clip0_1732_10506">
<rect width="319" height="76" fill="white"/>
</clipPath>
</defs>
</svg>
